# xmcd
#
# Track frame offsets: 
#        150
#        15552
#        28670
#        41382
#        57115
#        72095
#        89000
#        104040
#        117927
#        130127
#        146475
#        160909
#        179045
#
# Disc length: 2693 seconds
#
# Revision: 0
# Processed by: cddbd v1.4PL0 Copyright (c) Steve Scherf et al.
# Submitted via: ExactAudioCopy v0.95a4
#
DISCID=b50a830d
DTITLE=Henry Townsend - Cairo Blues
DYEAR=1999
DGENRE=Blues
TTITLE0=Cairo Blues
TTITLE1=Tired Of Being Mistreated
TTITLE2=Biddle Street Blues
TTITLE3=She Walked Away...
TTITLE4=Every Day Of My Life
TTITLE5=Sloppy Drunk Again!
TTITLE6=Why Do We Love Each Other?
TTITLE7=Deep Morgan Stomp
TTITLE8=Buzz, Buzz, Buzz...
TTITLE9=Heart Trouble
TTITLE10=Doing Better In Life
TTITLE11=Don't You Remember Me?
TTITLE12=Now Or Never!
EXTD=
EXTT0=
EXTT1=
EXTT2=
EXTT3=
EXTT4=
EXTT5=
EXTT6=
EXTT7=
EXTT8=
EXTT9=
EXTT10=
EXTT11=
EXTT12=
PLAYORDER=
